<?xml version="1.0" standalone="no"?>
<!DOCTYPE svg PUBLIC "-//W3C//DTD SVG 20010904//EN"
 "http://www.w3.org/TR/2001/REC-SVG-20010904/DTD/svg10.dtd">
<svg version="1.0" xmlns="http://www.w3.org/2000/svg"
 width="534.000000pt" height="534.000000pt" viewBox="0 0 534.000000 534.000000"
 preserveAspectRatio="xMidYMid meet">
<metadata>
Created by potrace 1.14, written by Peter Selinger 2001-2017
</metadata>
<g transform="translate(0.000000,534.000000) scale(0.100000,-0.100000)"
fill="#000000" stroke="none">
<path d="M2487 4914 c-1 -1 -40 -5 -87 -9 -591 -45 -1140 -262 -1534 -604 -54
-47 -48 -49 -130 32 -45 43 -54 48 -85 43 -20 -3 -37 -5 -39 -6 -2 0 -9 -15
-16 -32 -10 -24 -13 -74 -11 -174 l3 -141 -40 -49 c-64 -80 -176 -251 -213
-328 -20 -42 -36 -93 -39 -121 -4 -49 17 -152 34 -169 4 -4 4 -22 -1 -40 -5
-17 -11 -42 -14 -56 -6 -34 -12 -60 -19 -90 -3 -14 -8 -36 -10 -50 -3 -14 -10
-50 -16 -80 -6 -30 -13 -68 -15 -85 -3 -16 -8 -41 -10 -55 -10 -49 -13 -66
-25 -145 -7 -44 -13 -87 -15 -95 -1 -8 -6 -41 -10 -74 -6 -50 -12 -64 -47
-100 -22 -22 -54 -70 -71 -106 -27 -56 -32 -78 -34 -157 -5 -173 67 -321 178
-367 29 -12 42 -28 68 -80 89 -182 238 -308 415 -352 34 -9 80 -22 104 -30 23
-8 46 -13 50 -13 4 1 27 1 52 0 45 -1 46 -1 74 -58 111 -228 322 -460 557
-615 439 -290 1030 -393 1579 -276 278 59 544 180 770 352 65 49 207 187 269
261 50 59 148 211 186 286 l34 66 44 -4 c56 -5 260 48 344 89 113 56 216 160
281 285 28 55 44 75 66 83 118 41 203 205 193 373 -6 104 -12 130 -45 190 -25
46 -88 107 -110 107 -10 0 -16 19 -26 80 -4 30 -19 113 -21 120 -1 3 -5 28
-10 55 -5 28 -10 52 -10 55 -1 3 -5 25 -9 50 -15 84 -46 223 -82 367 -21 84
-24 108 -15 135 38 116 -9 252 -175 503 l-53 80 6 177 6 176 -26 26 c-42 42
-70 34 -145 -36 -37 -35 -68 -66 -70 -70 -2 -4 -44 28 -93 72 -74 66 -280 220
-293 220 -2 0 -33 18 -68 39 -292 177 -686 297 -1108 337 -56 5 -468 12 -473
8z m446 -594 c354 -37 666 -140 914 -302 84 -55 163 -116 163 -127 0 -8 -165
-74 -241 -95 -124 -36 -140 -36 -234 8 -78 37 -310 118 -370 130 -16 4 -41 8
-55 11 -14 3 -47 9 -75 15 -27 5 -77 12 -110 16 -33 3 -73 8 -90 10 -16 2 -95
4 -175 4 -312 0 -599 -60 -875 -184 -38 -18 -74 -31 -80 -31 -68 7 -245 63
-344 109 l-52 24 63 45 c281 200 650 332 1019 363 41 4 76 8 78 10 7 7 389 1
464 -6z m-2100 -1131 l46 -86 -37 0 c-78 0 -172 -31 -202 -68 -6 -7 -25 -19
-43 -26 -34 -13 -112 -64 -136 -87 -7 -7 -15 -11 -17 -10 -1 2 10 69 26 148
17 80 30 146 30 148 0 1 24 -1 53 -4 63 -7 145 13 198 49 19 13 35 23 35 23 1
-1 22 -40 47 -87z m3757 10 c60 -23 148 -28 193 -10 20 8 27 8 28 -2 0 -6 2
-19 4 -27 2 -8 13 -53 25 -99 11 -46 19 -86 17 -88 -5 -5 -94 45 -137 76 -67
50 -78 53 -195 66 -16 1 -33 3 -38 4 -5 1 40 101 47 101 0 0 26 -9 56 -21z"/>
</g>
</svg>
